<?xml version="1.0" encoding="UTF-8"?><svg id="Layer_2" xmlns="http://www.w3.org/2000/svg" viewBox="0 0 681.94 679"><defs><style>.cls-1{fill:lime;}</style></defs><g id="Layer_1-2"><path d="M431.88,0c271.89,.15,349.56,251.11,94.48,374.07-104.6,76.63-229.41,19.31-149.16,173.42,16.94,28.24-1.26,20.6-19.07,8.32-37.69-21.16-71.2-53.49-87.32-93.97-66.64-11.01-142.01-13.95-202.38-53.71C-61.38,331.74,15.83,160.52,115.53,93.16,205.93,27.91,323.58,2.09,431.88,0Zm-68.82,549.3c-6.29-34.46-45.01-109.64-4.03-134.85,9.17,6-13.18,27.7,9.75,17.05,87.55-27.45,175.18-63.4,243.05-126.74,80.53-59.05,86.36-191.58-.36-247.49C498.74-12.04,357.77,3.32,236.39,38.79-10.95,110.96-110.46,420.34,217.96,448.65c12.84-.38,50.65,13.15,49.59-6.1,.47-2.95,.62-10.09,4.73-10.26,4.34,52.1,50.32,87.92,90.78,117Z"/><path class="cls-1" d="M589.28,661.57c-.26,.83-.26,2.01-.82,2.42-2.74,1.99-5.41,4.39-8.51,5.51-9.72,3.5-19.19,7.71-29.71,8.83-15.56,1.66-30.54,.48-45-6.04-6.25-2.82-11.64-6.46-16.39-11.38-7.6-7.87-13.4-16.86-17.14-27.06-3.36-9.15-6.11-18.53-9.19-27.79-2.12-6.37-4.43-12.67-6.5-19.06-.81-2.51-2.82-5.24,.37-7.64,.15-.12,.23-.48,.18-.69-.54-2.3,.81-3.57,2.49-4.67,1.43-.93,2.89-1.82,4.33-2.74,5.31-3.4,10.86-6.29,16.86-8.32,6.22-2.1,12.17-4.51,18.93-5.46,9.75-1.38,18.66,.32,27.48,3.47,4.75,1.7,9.31,1.38,13.98,.72,4.2-.59,8.19-2.83,12.53-1.5l-.85,.77c2.63,1.14,2.71,1.07,4.45-.46,.48-.43,1.35-.73,1.98-.63,4.58,.69,9.21,1.23,13.69,2.34,5.85,1.44,11.6,3.32,17.37,5.11,1.93,.6,3.85,1.33,4.25,3.81,.09,.57,.89,1.02,1.58,1.75l1.36-3.13,2.93,3.09-2.91,1.06c.76,1.83,2.57,2.09,4.21,1.92,2.57-.26,4.95,2.17,7.56,.43,.03-.02,.14,.13,.2,.12,2.42-.32,4.3,1.06,6.41,1.86,5.96,2.27,12.04,4.2,18.01,6.44,1.9,.71,3.82,1.69,5.35,2.99,4.42,3.76,3.27,9.73,.81,14.67-2.42,4.86-5.56,9.36-8.44,13.99-2.48,4.01-5.02,7.98-7.56,11.95-.26,.4-.63,.9-1.04,1.01-.67,.18-1.42,.07-2.14,.09,.03-.67-.04-1.37,.11-2.01,.22-.91,.6-1.78,.92-2.67l-.5-.12c-3.02,2.98-6.04,5.97-9.05,8.95l-.84-.75,2.73-3.54c-4.3,2.5-8.41,5.21-12.09,8.41-2.53,2.19-4.41,5.11-6.69,7.61-.41,.45-1.59,.8-2,.54-1.76-1.13-2.37-.39-2.67,1.29-.17,.95-.41,1.88-.61,2.83-2.15-.36-3.27,.43-3.69,2.58-.08,.41-.42,.8-.69,1.15-1.4,1.81-2.81,3.6-4.23,5.4-.59,.75-1.32,1.42-1.75,2.25-.3,.57-.22,1.35-.31,2.04,2.42-.05,4.86,.06,7.24-.27,.58-.08,.96-1.61,1.44-2.47l1.55,1Zm-100.51-74c-1.41,1.05-2.72,2.02-4.56,3.39,1.05,1.37,1.92,3.09,3.3,4.17,1.86,1.45,3.75,.49,5.54-1.33,.5,.98,1.14,1.7,1.24,2.5,.58,4.53,4.16,5.95,7.67,6.71,2.92,.63,6.65,1.05,9.05-.23,3.86-2.07,4.31-.26,5.25,2.55,.84,2.52,2.93,3.98,5.56,3.81,4.5-.29,9.01-.78,13.44-1.56,1.58-.28,2.97-1.66,4.76-2.72,1.18,5.31,5.45,4.83,9.42,5.13,2.11,.16,4.23,.59,6.28,1.16,5,1.37,10.66,.96,12.88-5.38,.12-.35,.47-.62,.79-1.03,5.09,5.29,11.44,4.05,17.51,3.52,4.8-.42,7.5-3.5,8.36-8.19,.06-.31,.22-.6,.44-1.16,.54,.4,1.16,.61,1.34,1.01,1.16,2.64,3.19,2.42,5.45,1.86,6.16-1.51,7.36-3.05,8.85-10.24-4.5-1.33-9.12-1.39-13.73-1.09-1.56,.1-2.69-.02-3.63-1.44-.39-.59-1.32-1.07-2.06-1.16-4.61-.55-9.24-1.07-13.87-1.39-2.13-.14-4.28,.03-5.44,2.51-.57,1.22-1.7,2.18-2.91,3.66-.55-1.96-1.01-3.5-1.42-5.05-.54-2.06-1.91-2.84-3.92-2.51-5.89,.97-11.78,1.99-17.66,2.98-2.44,.41-4,1.82-4.87,4.11-.36,.94-.9,1.82-1.67,3.34-.79-2.36-1.35-4.04-1.9-5.71-.66-1.99-2.06-2.82-4.13-2.94-3.48-.21-6.93-.71-10.41-.86-1.88-.08-3.8,.19-5.66,.55-.53,.1-.87,1.07-1.33,1.61-.84,.98-1.71,1.95-2.95,3.34-1.09-1.62-2.23-2.82-2.8-4.26-1.16-2.92-6.58-4.94-9.33-3.35-1.11,.64-2.44,.92-3.53,1.58-1.25,.75-2.4,1.7-3.5,2.67-.64,.57-1.1,1.34-1.63,2l-4.23-2.57Zm55.39,50.68c-1.65,.77-2.9,1.28-4.07,1.93-.63,.35-1.13,.92-1.69,1.39,.5,.51,.91,1.26,1.52,1.5,1.6,.64,3.29,1.06,4.96,1.57,1.26-4.53,.98-5.68-.72-6.38Zm23.72,16.34c-2.43,.46-4.87,.92-7.23,1.64-.86,.26-1.5,1.24-2.24,1.89,.97,.45,2,1.37,2.88,1.25,2.34-.33,4.89-.43,6.36-2.94,.32-.54,1.4-.63,2.14-.93l.07-.67c-.66-.09-1.36-.37-1.98-.25Zm-14.84-10.76c.2,.52,1.31,1.17,1.82,1.03,1.79-.48,3.52-1.23,5.23-1.99,.32-.14,.67-.89,.56-1.17-.23-.54-.71-1.19-1.22-1.35-1-.31-2.1-.31-3.64-.5-.89-.02-3.22,2.67-2.74,3.96Zm3.47,15.8c.31-1.31-2.09-2.21-4.53-1.77-.41,.07-.95,.07-1.18,.32-.65,.73-1.18,1.57-1.75,2.36,1.03,.62,2.06,1.23,3.09,1.85,2.16-.32,3.9-.74,4.37-2.76Z"/></g></svg>