<?xml version="1.0" encoding="UTF-8"?><svg id="Layer_2" xmlns="http://www.w3.org/2000/svg" viewBox="0 0 764.72 502.99"><g id="Layer_1-2"><g id="thought"><g><path d="M452.56,335.15c-70.28,63.92-237.47,82.24-287.41-16.53-34.4-4.89-76.28,3.66-110.43-10.91C4.55,294.72-15.04,250.25,12.55,210.9c7.08-18.36,53.35-28.96,50.99-44.68-25.1-15.91-35.77-45.99-8.42-66.93,29.25-29.04,84.72-26.49,125.95-25.7C243.96,.46,396.07-30.24,470.69,38.21c30.55,51.95,76.09,20.21,125.73,22.23,129.39-16.94,247.5,119.6,99.72,174.9,91.85,147.81-151.19,176.26-243.58,99.81ZM167.37,87.73c-41.54-10.7-137.06,12.43-106.41,58.62,6.26,8.96,39.4,19.71,21.56,32.01-45.81,20.77-108.3,79.05-35.34,112.74,37.96,20.31,87.08,7.67,124.44,13.31,48.35,87.58,183.47,94.93,259.04,32.84,12.09-6.92,23.08-37.1,36.48-20.79,37.67,66.82,227.02,66.86,235.89-20.39,1.13-64.57-82.86-53.57,7.72-83.4,106.65-67.52-18.91-147.59-110.8-139.25-35.53-2.57-75.48,13.52-106.42,10.56C425.44-27.03,248,4.92,180.59,98.25c-9.21,7.95-14.35-1.15-13.22-10.51Z"/><path d="M497.03,414.31c.17,32.9-93.29,32.74-96.39-.29-.21-46.32,95.52-38.6,96.39,.29Zm-38.03,13.03c41.1,4.65,25.77-39.13-11.36-36.13-42.81-2.24-29.36,48.51,11.36,36.13Z"/><path d="M377.65,440.45c81.46,8.48,16.64,62.62-29.17,34.96-31.61-17.4,9.55-35.6,29.17-34.96Zm-.88,29.97c7.74,1.43,33.49-2.71,25.57-13.73-19.26-24.06-82.39,13.29-25.57,13.73Z"/><path d="M283.92,502.93c-29.49,0-24.04-25.11,.59-26.62,28.22,.57,33.97,28.14-.59,26.62Zm1.7-7.92c4.22,.19,7.15-1.28,9.57-3.38,2.75-9.45-37.74-.98-9.57,3.38Z"/></g></g></g></svg>