<?xml version="1.0" encoding="UTF-8"?><svg id="Layer_2" xmlns="http://www.w3.org/2000/svg" viewBox="0 0 681.94 566.85"><g id="Layer_1-2"><path d="M431.88,0c271.89,.15,349.56,251.11,94.48,374.07-104.6,76.63-229.41,19.31-149.16,173.42,16.94,28.24-1.26,20.6-19.07,8.32-37.69-21.16-71.2-53.49-87.32-93.97-66.64-11.01-142.01-13.95-202.38-53.71C-61.38,331.74,15.83,160.52,115.53,93.16,205.93,27.91,323.58,2.09,431.88,0Zm-68.82,549.3c-6.29-34.46-45.01-109.64-4.03-134.85,9.17,6-13.18,27.7,9.75,17.05,87.55-27.45,175.18-63.4,243.05-126.74,80.53-59.05,86.36-191.58-.36-247.49C498.74-12.04,357.77,3.32,236.39,38.79-10.95,110.96-110.46,420.34,217.96,448.65c12.84-.38,50.65,13.15,49.59-6.1,.47-2.95,.62-10.09,4.73-10.26,4.34,52.1,50.32,87.92,90.78,117Z"/></g></svg>